<?xml version="1.0" encoding="utf-8" standalone="no"?>
<!DOCTYPE svg PUBLIC "-//W3C//DTD SVG 1.1//EN"
  "http://www.w3.org/Graphics/SVG/1.1/DTD/svg11.dtd">
<svg xmlns:xlink="http://www.w3.org/1999/xlink" width="568.8pt" height="280.596777pt" viewBox="0 0 568.8 280.596777" xmlns="http://www.w3.org/2000/svg" version="1.1">
 <metadata>
  <rdf:RDF xmlns:dc="http://purl.org/dc/elements/1.1/" xmlns:cc="http://creativecommons.org/ns#" xmlns:rdf="http://www.w3.org/1999/02/22-rdf-syntax-ns#">
   <cc:Work>
    <dc:type rdf:resource="http://purl.org/dc/dcmitype/StillImage"/>
    <dc:date>1980-01-01T00:00:00+00:00</dc:date>
    <dc:format>image/svg+xml</dc:format>
    <dc:creator>
     <cc:Agent>
      <dc:title>Matplotlib v3.10.7, https://matplotlib.org/</dc:title>
     </cc:Agent>
    </dc:creator>
   </cc:Work>
  </rdf:RDF>
 </metadata>
 <defs>
  <style type="text/css">*{stroke-linejoin: round; stroke-linecap: butt}</style>
 </defs>
 <g id="figure_1">
  <g id="patch_1">
   <path d="M 0 280.596777 
L 568.8 280.596777 
L 568.8 0 
L 0 0 
z
" style="fill: #ffffff"/>
  </g>
  <g id="axes_1">
   <g id="patch_2">
    <path d="M 55.8 243.018652 
L 472.690625 243.018652 
L 472.690625 7.516542 
L 55.8 7.516542 
z
" style="fill: #ffffff"/>
   </g>
   <g id="matplotlib.axis_1">
    <g id="xtick_1">
     <g id="line2d_1">
      <path d="M 62.674714 243.018652 
L 62.674714 7.516542 
" clip-path="url(#pc64ed5497f)" style="fill: none; stroke-dasharray: 2.96,1.28; stroke-dashoffset: 0; stroke: #e6e6e6; stroke-width: 0.8"/>
     </g>
     <g id="line2d_2">
      <defs>
       <path id="m708f2990a8" d="M 0 0 
L 0 3.5 
" style="stroke: #000000; stroke-width: 0.8"/>
      </defs>
      <g>
       <use xlink:href="#m708f2990a8" x="62.674714" y="243.018652" style="stroke: #000000; stroke-width: 0.8"/>
      </g>
     </g>
     <g id="text_1">
      <!-- 0 -->
      <g transform="translate(59.493464 257.61709) scale(0.1 -0.1)">
       <defs>
        <path id="DejaVuSans-30" d="M 2034 4250 
Q 1547 4250 1301 3770 
Q 1056 3291 1056 2328 
Q 1056 1369 1301 889 
Q 1547 409 2034 409 
Q 2525 409 2770 889 
Q 3016 1369 3016 2328 
Q 3016 3291 2770 3770 
Q 2525 4250 2034 4250 
z
M 2034 4750 
Q 2819 4750 3233 4129 
Q 3647 3509 3647 2328 
Q 3647 1150 3233 529 
Q 2819 -91 2034 -91 
Q 1250 -91 836 529 
Q 422 1150 422 2328 
Q 422 3509 836 4129 
Q 1250 4750 2034 4750 
z
" transform="scale(0.015625)"/>
       </defs>
       <use xlink:href="#DejaVuSans-30"/>
      </g>
     </g>
    </g>
    <g id="xtick_2">
     <g id="line2d_3">
      <path d="M 130.549882 243.018652 
L 130.549882 7.516542 
" clip-path="url(#pc64ed5497f)" style="fill: none; stroke-dasharray: 2.96,1.28; stroke-dashoffset: 0; stroke: #e6e6e6; stroke-width: 0.8"/>
     </g>
     <g id="line2d_4">
      <g>
       <use xlink:href="#m708f2990a8" x="130.549882" y="243.018652" style="stroke: #000000; stroke-width: 0.8"/>
      </g>
     </g>
     <g id="text_2">
      <!-- 5 -->
      <g transform="translate(127.368632 257.61709) scale(0.1 -0.1)">
       <defs>
        <path id="DejaVuSans-35" d="M 691 4666 
L 3169 4666 
L 3169 4134 
L 1269 4134 
L 1269 2991 
Q 1406 3038 1543 3061 
Q 1681 3084 1819 3084 
Q 2600 3084 3056 2656 
Q 3513 2228 3513 1497 
Q 3513 744 3044 326 
Q 2575 -91 1722 -91 
Q 1428 -91 1123 -41 
Q 819 9 494 109 
L 494 744 
Q 775 591 1075 516 
Q 1375 441 1709 441 
Q 2250 441 2565 725 
Q 2881 1009 2881 1497 
Q 2881 1984 2565 2268 
Q 2250 2553 1709 2553 
Q 1456 2553 1204 2497 
Q 953 2441 691 2322 
L 691 4666 
z
" transform="scale(0.015625)"/>
       </defs>
       <use xlink:href="#DejaVuSans-35"/>
      </g>
     </g>
    </g>
    <g id="xtick_3">
     <g id="line2d_5">
      <path d="M 198.425049 243.018652 
L 198.425049 7.516542 
" clip-path="url(#pc64ed5497f)" style="fill: none; stroke-dasharray: 2.96,1.28; stroke-dashoffset: 0; stroke: #e6e6e6; stroke-width: 0.8"/>
     </g>
     <g id="line2d_6">
      <g>
       <use xlink:href="#m708f2990a8" x="198.425049" y="243.018652" style="stroke: #000000; stroke-width: 0.8"/>
      </g>
     </g>
     <g id="text_3">
      <!-- 10 -->
      <g transform="translate(192.062549 257.61709) scale(0.1 -0.1)">
       <defs>
        <path id="DejaVuSans-31" d="M 794 531 
L 1825 531 
L 1825 4091 
L 703 3866 
L 703 4441 
L 1819 4666 
L 2450 4666 
L 2450 531 
L 3481 531 
L 3481 0 
L 794 0 
L 794 531 
z
" transform="scale(0.015625)"/>
       </defs>
       <use xlink:href="#DejaVuSans-31"/>
       <use xlink:href="#DejaVuSans-30" transform="translate(63.623047 0)"/>
      </g>
     </g>
    </g>
    <g id="xtick_4">
     <g id="line2d_7">
      <path d="M 266.300217 243.018652 
L 266.300217 7.516542 
" clip-path="url(#pc64ed5497f)" style="fill: none; stroke-dasharray: 2.96,1.28; stroke-dashoffset: 0; stroke: #e6e6e6; stroke-width: 0.8"/>
     </g>
     <g id="line2d_8">
      <g>
       <use xlink:href="#m708f2990a8" x="266.300217" y="243.018652" style="stroke: #000000; stroke-width: 0.8"/>
      </g>
     </g>
     <g id="text_4">
      <!-- 15 -->
      <g transform="translate(259.937717 257.61709) scale(0.1 -0.1)">
       <use xlink:href="#DejaVuSans-31"/>
       <use xlink:href="#DejaVuSans-35" transform="translate(63.623047 0)"/>
      </g>
     </g>
    </g>
    <g id="xtick_5">
     <g id="line2d_9">
      <path d="M 334.175385 243.018652 
L 334.175385 7.516542 
" clip-path="url(#pc64ed5497f)" style="fill: none; stroke-dasharray: 2.96,1.28; stroke-dashoffset: 0; stroke: #e6e6e6; stroke-width: 0.8"/>
     </g>
     <g id="line2d_10">
      <g>
       <use xlink:href="#m708f2990a8" x="334.175385" y="243.018652" style="stroke: #000000; stroke-width: 0.8"/>
      </g>
     </g>
     <g id="text_5">
      <!-- 20 -->
      <g transform="translate(327.812885 257.61709) scale(0.1 -0.1)">
       <defs>
        <path id="DejaVuSans-32" d="M 1228 531 
L 3431 531 
L 3431 0 
L 469 0 
L 469 531 
Q 828 903 1448 1529 
Q 2069 2156 2228 2338 
Q 2531 2678 2651 2914 
Q 2772 3150 2772 3378 
Q 2772 3750 2511 3984 
Q 2250 4219 1831 4219 
Q 1534 4219 1204 4116 
Q 875 4013 500 3803 
L 500 4441 
Q 881 4594 1212 4672 
Q 1544 4750 1819 4750 
Q 2544 4750 2975 4387 
Q 3406 4025 3406 3419 
Q 3406 3131 3298 2873 
Q 3191 2616 2906 2266 
Q 2828 2175 2409 1742 
Q 1991 1309 1228 531 
z
" transform="scale(0.015625)"/>
       </defs>
       <use xlink:href="#DejaVuSans-32"/>
       <use xlink:href="#DejaVuSans-30" transform="translate(63.623047 0)"/>
      </g>
     </g>
    </g>
    <g id="xtick_6">
     <g id="line2d_11">
      <path d="M 402.050552 243.018652 
L 402.050552 7.516542 
" clip-path="url(#pc64ed5497f)" style="fill: none; stroke-dasharray: 2.96,1.28; stroke-dashoffset: 0; stroke: #e6e6e6; stroke-width: 0.8"/>
     </g>
     <g id="line2d_12">
      <g>
       <use xlink:href="#m708f2990a8" x="402.050552" y="243.018652" style="stroke: #000000; stroke-width: 0.8"/>
      </g>
     </g>
     <g id="text_6">
      <!-- 25 -->
      <g transform="translate(395.688052 257.61709) scale(0.1 -0.1)">
       <use xlink:href="#DejaVuSans-32"/>
       <use xlink:href="#DejaVuSans-35" transform="translate(63.623047 0)"/>
      </g>
     </g>
    </g>
    <g id="xtick_7">
     <g id="line2d_13">
      <path d="M 469.92572 243.018652 
L 469.92572 7.516542 
" clip-path="url(#pc64ed5497f)" style="fill: none; stroke-dasharray: 2.96,1.28; stroke-dashoffset: 0; stroke: #e6e6e6; stroke-width: 0.8"/>
     </g>
     <g id="line2d_14">
      <g>
       <use xlink:href="#m708f2990a8" x="469.92572" y="243.018652" style="stroke: #000000; stroke-width: 0.8"/>
      </g>
     </g>
     <g id="text_7">
      <!-- 30 -->
      <g transform="translate(463.56322 257.61709) scale(0.1 -0.1)">
       <defs>
        <path id="DejaVuSans-33" d="M 2597 2516 
Q 3050 2419 3304 2112 
Q 3559 1806 3559 1356 
Q 3559 666 3084 287 
Q 2609 -91 1734 -91 
Q 1441 -91 1130 -33 
Q 819 25 488 141 
L 488 750 
Q 750 597 1062 519 
Q 1375 441 1716 441 
Q 2309 441 2620 675 
Q 2931 909 2931 1356 
Q 2931 1769 2642 2001 
Q 2353 2234 1838 2234 
L 1294 2234 
L 1294 2753 
L 1863 2753 
Q 2328 2753 2575 2939 
Q 2822 3125 2822 3475 
Q 2822 3834 2567 4026 
Q 2313 4219 1838 4219 
Q 1578 4219 1281 4162 
Q 984 4106 628 3988 
L 628 4550 
Q 988 4650 1302 4700 
Q 1616 4750 1894 4750 
Q 2613 4750 3031 4423 
Q 3450 4097 3450 3541 
Q 3450 3153 3228 2886 
Q 3006 2619 2597 2516 
z
" transform="scale(0.015625)"/>
       </defs>
       <use xlink:href="#DejaVuSans-33"/>
       <use xlink:href="#DejaVuSans-30" transform="translate(63.623047 0)"/>
      </g>
     </g>
    </g>
    <g id="text_8">
     <!-- $g_m/I_D\ (S/A)$ -->
     <g transform="translate(237.695312 271.296777) scale(0.1 -0.1)">
      <defs>
       <path id="DejaVuSans-Oblique-67" d="M 3816 3500 
L 3219 434 
Q 3047 -456 2561 -893 
Q 2075 -1331 1253 -1331 
Q 950 -1331 690 -1286 
Q 431 -1241 206 -1147 
L 313 -588 
Q 525 -725 762 -790 
Q 1000 -856 1269 -856 
Q 1816 -856 2167 -557 
Q 2519 -259 2631 300 
L 2681 563 
Q 2441 288 2122 144 
Q 1803 0 1434 0 
Q 903 0 598 351 
Q 294 703 294 1319 
Q 294 1803 478 2267 
Q 663 2731 997 3091 
Q 1219 3328 1514 3456 
Q 1809 3584 2131 3584 
Q 2484 3584 2746 3420 
Q 3009 3256 3138 2956 
L 3238 3500 
L 3816 3500 
z
M 2950 2216 
Q 2950 2641 2750 2872 
Q 2550 3103 2181 3103 
Q 1953 3103 1747 3012 
Q 1541 2922 1394 2759 
Q 1156 2491 1023 2127 
Q 891 1763 891 1375 
Q 891 944 1092 712 
Q 1294 481 1672 481 
Q 2219 481 2584 976 
Q 2950 1472 2950 2216 
z
" transform="scale(0.015625)"/>
       <path id="DejaVuSans-Oblique-6d" d="M 5747 2113 
L 5338 0 
L 4763 0 
L 5166 2094 
Q 5191 2228 5203 2325 
Q 5216 2422 5216 2491 
Q 5216 2772 5059 2928 
Q 4903 3084 4622 3084 
Q 4203 3084 3875 2770 
Q 3547 2456 3450 1953 
L 3066 0 
L 2491 0 
L 2900 2094 
Q 2925 2209 2937 2307 
Q 2950 2406 2950 2484 
Q 2950 2769 2794 2926 
Q 2638 3084 2363 3084 
Q 1938 3084 1609 2770 
Q 1281 2456 1184 1953 
L 800 0 
L 225 0 
L 909 3500 
L 1484 3500 
L 1375 2956 
Q 1609 3263 1923 3423 
Q 2238 3584 2597 3584 
Q 2978 3584 3223 3384 
Q 3469 3184 3519 2828 
Q 3781 3197 4126 3390 
Q 4472 3584 4856 3584 
Q 5306 3584 5551 3325 
Q 5797 3066 5797 2591 
Q 5797 2488 5784 2364 
Q 5772 2241 5747 2113 
z
" transform="scale(0.015625)"/>
       <path id="DejaVuSans-2f" d="M 1625 4666 
L 2156 4666 
L 531 -594 
L 0 -594 
L 1625 4666 
z
" transform="scale(0.015625)"/>
       <path id="DejaVuSans-Oblique-49" d="M 1081 4666 
L 1716 4666 
L 806 0 
L 172 0 
L 1081 4666 
z
" transform="scale(0.015625)"/>
       <path id="DejaVuSans-Oblique-44" d="M 1081 4666 
L 2438 4666 
Q 3519 4666 4070 4208 
Q 4622 3750 4622 2847 
Q 4622 2250 4412 1698 
Q 4203 1147 3834 769 
Q 3463 381 2891 190 
Q 2319 0 1538 0 
L 172 0 
L 1081 4666 
z
M 1613 4147 
L 909 519 
L 1734 519 
Q 2794 519 3375 1128 
Q 3956 1738 3956 2847 
Q 3956 3519 3581 3833 
Q 3206 4147 2406 4147 
L 1613 4147 
z
" transform="scale(0.015625)"/>
       <path id="DejaVuSans-28" d="M 1984 4856 
Q 1566 4138 1362 3434 
Q 1159 2731 1159 2009 
Q 1159 1288 1364 580 
Q 1569 -128 1984 -844 
L 1484 -844 
Q 1016 -109 783 600 
Q 550 1309 550 2009 
Q 550 2706 781 3412 
Q 1013 4119 1484 4856 
L 1984 4856 
z
" transform="scale(0.015625)"/>
       <path id="DejaVuSans-Oblique-53" d="M 3859 4513 
L 3738 3897 
Q 3422 4066 3111 4152 
Q 2800 4238 2509 4238 
Q 1944 4238 1609 3991 
Q 1275 3744 1275 3334 
Q 1275 3109 1398 2989 
Q 1522 2869 2034 2731 
L 2413 2638 
Q 3053 2472 3303 2217 
Q 3553 1963 3553 1503 
Q 3553 797 2998 353 
Q 2444 -91 1538 -91 
Q 1166 -91 791 -17 
Q 416 56 38 206 
L 166 856 
Q 513 641 861 531 
Q 1209 422 1556 422 
Q 2147 422 2503 684 
Q 2859 947 2859 1369 
Q 2859 1650 2717 1795 
Q 2575 1941 2106 2059 
L 1728 2156 
Q 1081 2325 845 2545 
Q 609 2766 609 3163 
Q 609 3859 1145 4304 
Q 1681 4750 2541 4750 
Q 2875 4750 3203 4690 
Q 3531 4631 3859 4513 
z
" transform="scale(0.015625)"/>
       <path id="DejaVuSans-Oblique-41" d="M 2356 4666 
L 3072 4666 
L 3938 0 
L 3278 0 
L 3084 1197 
L 984 1197 
L 325 0 
L -341 0 
L 2356 4666 
z
M 2584 4044 
L 1275 1722 
L 2988 1722 
L 2584 4044 
z
" transform="scale(0.015625)"/>
       <path id="DejaVuSans-29" d="M 513 4856 
L 1013 4856 
Q 1481 4119 1714 3412 
Q 1947 2706 1947 2009 
Q 1947 1309 1714 600 
Q 1481 -109 1013 -844 
L 513 -844 
Q 928 -128 1133 580 
Q 1338 1288 1338 2009 
Q 1338 2731 1133 3434 
Q 928 4138 513 4856 
z
" transform="scale(0.015625)"/>
      </defs>
      <use xlink:href="#DejaVuSans-Oblique-67" transform="translate(0 0.125)"/>
      <use xlink:href="#DejaVuSans-Oblique-6d" transform="translate(63.476562 -16.28125) scale(0.7)"/>
      <use xlink:href="#DejaVuSans-2f" transform="translate(134.399414 0.125)"/>
      <use xlink:href="#DejaVuSans-Oblique-49" transform="translate(168.09082 0.125)"/>
      <use xlink:href="#DejaVuSans-Oblique-44" transform="translate(197.583008 -16.28125) scale(0.7)"/>
      <use xlink:href="#DejaVuSans-28" transform="translate(286.689128 0.125)"/>
      <use xlink:href="#DejaVuSans-Oblique-53" transform="translate(325.7028 0.125)"/>
      <use xlink:href="#DejaVuSans-2f" transform="translate(389.179363 0.125)"/>
      <use xlink:href="#DejaVuSans-Oblique-41" transform="translate(422.870769 0.125)"/>
      <use xlink:href="#DejaVuSans-29" transform="translate(491.278972 0.125)"/>
     </g>
    </g>
   </g>
   <g id="matplotlib.axis_2">
    <g id="ytick_1">
     <g id="line2d_15">
      <path d="M 55.8 205.933991 
L 472.690625 205.933991 
" clip-path="url(#pc64ed5497f)" style="fill: none; stroke-dasharray: 2.96,1.28; stroke-dashoffset: 0; stroke: #e6e6e6; stroke-width: 0.8"/>
     </g>
     <g id="line2d_16">
      <defs>
       <path id="m194f8e5841" d="M 0 0 
L -3.5 0 
" style="stroke: #000000; stroke-width: 0.8"/>
      </defs>
      <g>
       <use xlink:href="#m194f8e5841" x="55.8" y="205.933991" style="stroke: #000000; stroke-width: 0.8"/>
      </g>
     </g>
     <g id="text_9">
      <!-- $\mathdefault{10^{-11}}$ -->
      <g transform="translate(20.9 209.73321) scale(0.1 -0.1)">
       <defs>
        <path id="DejaVuSans-2212" d="M 678 2272 
L 4684 2272 
L 4684 1741 
L 678 1741 
L 678 2272 
z
" transform="scale(0.015625)"/>
       </defs>
       <use xlink:href="#DejaVuSans-31" transform="translate(0 0.684375)"/>
       <use xlink:href="#DejaVuSans-30" transform="translate(63.623047 0.684375)"/>
       <use xlink:href="#DejaVuSans-2212" transform="translate(128.203125 38.965625) scale(0.7)"/>
       <use xlink:href="#DejaVuSans-31" transform="translate(186.855469 38.965625) scale(0.7)"/>
       <use xlink:href="#DejaVuSans-31" transform="translate(231.391602 38.965625) scale(0.7)"/>
      </g>
     </g>
    </g>
    <g id="ytick_2">
     <g id="line2d_17">
      <path d="M 55.8 157.200298 
L 472.690625 157.200298 
" clip-path="url(#pc64ed5497f)" style="fill: none; stroke-dasharray: 2.96,1.28; stroke-dashoffset: 0; stroke: #e6e6e6; stroke-width: 0.8"/>
     </g>
     <g id="line2d_18">
      <g>
       <use xlink:href="#m194f8e5841" x="55.8" y="157.200298" style="stroke: #000000; stroke-width: 0.8"/>
      </g>
     </g>
     <g id="text_10">
      <!-- $\mathdefault{10^{-9}}$ -->
      <g transform="translate(25.3 160.999517) scale(0.1 -0.1)">
       <defs>
        <path id="DejaVuSans-39" d="M 703 97 
L 703 672 
Q 941 559 1184 500 
Q 1428 441 1663 441 
Q 2288 441 2617 861 
Q 2947 1281 2994 2138 
Q 2813 1869 2534 1725 
Q 2256 1581 1919 1581 
Q 1219 1581 811 2004 
Q 403 2428 403 3163 
Q 403 3881 828 4315 
Q 1253 4750 1959 4750 
Q 2769 4750 3195 4129 
Q 3622 3509 3622 2328 
Q 3622 1225 3098 567 
Q 2575 -91 1691 -91 
Q 1453 -91 1209 -44 
Q 966 3 703 97 
z
M 1959 2075 
Q 2384 2075 2632 2365 
Q 2881 2656 2881 3163 
Q 2881 3666 2632 3958 
Q 2384 4250 1959 4250 
Q 1534 4250 1286 3958 
Q 1038 3666 1038 3163 
Q 1038 2656 1286 2365 
Q 1534 2075 1959 2075 
z
" transform="scale(0.015625)"/>
       </defs>
       <use xlink:href="#DejaVuSans-31" transform="translate(0 0.765625)"/>
       <use xlink:href="#DejaVuSans-30" transform="translate(63.623047 0.765625)"/>
       <use xlink:href="#DejaVuSans-2212" transform="translate(128.203125 39.046875) scale(0.7)"/>
       <use xlink:href="#DejaVuSans-39" transform="translate(186.855469 39.046875) scale(0.7)"/>
      </g>
     </g>
    </g>
    <g id="ytick_3">
     <g id="line2d_19">
      <path d="M 55.8 108.466605 
L 472.690625 108.466605 
" clip-path="url(#pc64ed5497f)" style="fill: none; stroke-dasharray: 2.96,1.28; stroke-dashoffset: 0; stroke: #e6e6e6; stroke-width: 0.8"/>
     </g>
     <g id="line2d_20">
      <g>
       <use xlink:href="#m194f8e5841" x="55.8" y="108.466605" style="stroke: #000000; stroke-width: 0.8"/>
      </g>
     </g>
     <g id="text_11">
      <!-- $\mathdefault{10^{-7}}$ -->
      <g transform="translate(25.3 112.265824) scale(0.1 -0.1)">
       <defs>
        <path id="DejaVuSans-37" d="M 525 4666 
L 3525 4666 
L 3525 4397 
L 1831 0 
L 1172 0 
L 2766 4134 
L 525 4134 
L 525 4666 
z
" transform="scale(0.015625)"/>
       </defs>
       <use xlink:href="#DejaVuSans-31" transform="translate(0 0.684375)"/>
       <use xlink:href="#DejaVuSans-30" transform="translate(63.623047 0.684375)"/>
       <use xlink:href="#DejaVuSans-2212" transform="translate(128.203125 38.965625) scale(0.7)"/>
       <use xlink:href="#DejaVuSans-37" transform="translate(186.855469 38.965625) scale(0.7)"/>
      </g>
     </g>
    </g>
    <g id="ytick_4">
     <g id="line2d_21">
      <path d="M 55.8 59.732912 
L 472.690625 59.732912 
" clip-path="url(#pc64ed5497f)" style="fill: none; stroke-dasharray: 2.96,1.28; stroke-dashoffset: 0; stroke: #e6e6e6; stroke-width: 0.8"/>
     </g>
     <g id="line2d_22">
      <g>
       <use xlink:href="#m194f8e5841" x="55.8" y="59.732912" style="stroke: #000000; stroke-width: 0.8"/>
      </g>
     </g>
     <g id="text_12">
      <!-- $\mathdefault{10^{-5}}$ -->
      <g transform="translate(25.3 63.532131) scale(0.1 -0.1)">
       <use xlink:href="#DejaVuSans-31" transform="translate(0 0.684375)"/>
       <use xlink:href="#DejaVuSans-30" transform="translate(63.623047 0.684375)"/>
       <use xlink:href="#DejaVuSans-2212" transform="translate(128.203125 38.965625) scale(0.7)"/>
       <use xlink:href="#DejaVuSans-35" transform="translate(186.855469 38.965625) scale(0.7)"/>
      </g>
     </g>
    </g>
    <g id="ytick_5">
     <g id="line2d_23">
      <path d="M 55.8 10.999219 
L 472.690625 10.999219 
" clip-path="url(#pc64ed5497f)" style="fill: none; stroke-dasharray: 2.96,1.28; stroke-dashoffset: 0; stroke: #e6e6e6; stroke-width: 0.8"/>
     </g>
     <g id="line2d_24">
      <g>
       <use xlink:href="#m194f8e5841" x="55.8" y="10.999219" style="stroke: #000000; stroke-width: 0.8"/>
      </g>
     </g>
     <g id="text_13">
      <!-- $\mathdefault{10^{-3}}$ -->
      <g transform="translate(25.3 14.798438) scale(0.1 -0.1)">
       <use xlink:href="#DejaVuSans-31" transform="translate(0 0.765625)"/>
       <use xlink:href="#DejaVuSans-30" transform="translate(63.623047 0.765625)"/>
       <use xlink:href="#DejaVuSans-2212" transform="translate(128.203125 39.046875) scale(0.7)"/>
       <use xlink:href="#DejaVuSans-33" transform="translate(186.855469 39.046875) scale(0.7)"/>
      </g>
     </g>
    </g>
    <g id="text_14">
     <!-- $g_m$ (S) -->
     <g transform="translate(14.8 140.667597) rotate(-90) scale(0.1 -0.1)">
      <defs>
       <path id="DejaVuSans-20" transform="scale(0.015625)"/>
       <path id="DejaVuSans-53" d="M 3425 4513 
L 3425 3897 
Q 3066 4069 2747 4153 
Q 2428 4238 2131 4238 
Q 1616 4238 1336 4038 
Q 1056 3838 1056 3469 
Q 1056 3159 1242 3001 
Q 1428 2844 1947 2747 
L 2328 2669 
Q 3034 2534 3370 2195 
Q 3706 1856 3706 1288 
Q 3706 609 3251 259 
Q 2797 -91 1919 -91 
Q 1588 -91 1214 -16 
Q 841 59 441 206 
L 441 856 
Q 825 641 1194 531 
Q 1563 422 1919 422 
Q 2459 422 2753 634 
Q 3047 847 3047 1241 
Q 3047 1584 2836 1778 
Q 2625 1972 2144 2069 
L 1759 2144 
Q 1053 2284 737 2584 
Q 422 2884 422 3419 
Q 422 4038 858 4394 
Q 1294 4750 2059 4750 
Q 2388 4750 2728 4690 
Q 3069 4631 3425 4513 
z
" transform="scale(0.015625)"/>
      </defs>
      <use xlink:href="#DejaVuSans-Oblique-67" transform="translate(0 0.125)"/>
      <use xlink:href="#DejaVuSans-Oblique-6d" transform="translate(63.476562 -16.28125) scale(0.7)"/>
      <use xlink:href="#DejaVuSans-20" transform="translate(134.399414 0.125)"/>
      <use xlink:href="#DejaVuSans-28" transform="translate(166.186523 0.125)"/>
      <use xlink:href="#DejaVuSans-53" transform="translate(205.200195 0.125)"/>
      <use xlink:href="#DejaVuSans-29" transform="translate(268.676758 0.125)"/>
     </g>
    </g>
   </g>
   <g id="line2d_25">
    <path d="M 95.782517 220.921852 
L 115.033542 215.416514 
L 142.671968 209.911435 
L 179.223446 204.40669 
L 222.674244 198.902378 
L 268.258389 193.398625 
L 310.16458 187.895595 
L 344.29703 182.393502 
L 369.380812 176.892622 
L 386.501177 171.393315 
L 397.563957 165.896043 
L 404.447301 160.401406 
L 408.593257 154.910181 
L 410.99389 149.423372 
L 412.286745 143.942273 
L 412.870902 138.468557 
L 412.969344 133.004372 
L 412.707288 127.552481 
L 412.137942 122.116414 
L 411.268814 116.70068 
L 410.073055 111.310996 
L 408.497637 105.954567 
L 406.465789 100.640403 
L 403.879741 95.379642 
L 400.622772 90.185864 
L 396.563167 85.075337 
L 391.561573 80.067096 
L 385.482781 75.182768 
L 378.212631 70.446011 
L 369.679402 65.881463 
L 359.876051 61.51321 
L 348.877278 57.362908 
L 336.844106 53.447911 
L 324.009334 49.779933 
L 310.644676 46.364709 
L 297.017236 43.202885 
L 283.351036 40.291798 
L 269.807151 37.627424 
L 256.488244 35.20563 
L 243.462063 33.022248 
L 230.789105 31.072127 
L 218.541635 29.347771 
L 206.807184 27.838307 
L 195.679259 26.529203 
L 185.242323 25.40282 
L 175.558673 24.439511 
L 166.661281 23.618916 
L 158.553288 22.921142 
L 151.212116 22.327651 
L 144.596104 21.821809 
L 138.651395 21.389134 
L 133.317997 21.017303 
L 128.534482 20.696018 
L 124.241172 20.416787 
L 120.382213 20.172666 
L 116.906576 19.958016 
L 113.768534 19.768264 
L 110.927564 19.599706 
L 108.348119 19.449334 
L 105.999167 19.314695 
L 103.853733 19.193778 
L 101.888405 19.084921 
L 100.082885 18.986741 
L 98.419559 18.898078 
L 96.883128 18.817947 
L 95.460287 18.745507 
L 94.139426 18.680034 
L 92.910405 18.620897 
L 91.76432 18.567545 
L 90.693358 18.519491 
L 89.690631 18.476305 
L 88.750036 18.437598 
L 87.866164 18.40303 
L 87.034207 18.372286 
L 86.249869 18.34509 
L 85.509309 18.321185 
L 84.809087 18.300342 
L 84.14609 18.282351 
L 83.517531 18.267018 
L 82.920878 18.254171 
L 82.353836 18.243651 
L 81.814329 18.235307 
L 81.300456 18.229007 
L 80.810492 18.224628 
L 80.342857 18.222055 
L 79.896105 18.221183 
L 79.468903 18.221918 
L 79.060039 18.224169 
L 78.668383 18.227855 
L 78.292902 18.232902 
L 77.932645 18.239238 
" clip-path="url(#pc64ed5497f)" style="fill: none; stroke: #1f77b4; stroke-width: 1.5; stroke-linecap: square"/>
   </g>
   <g id="line2d_26">
    <path d="M 82.335312 226.905362 
L 95.393358 221.113324 
L 115.81639 215.321815 
L 145.885548 209.531004 
L 186.299675 203.741104 
L 234.599393 197.952403 
L 284.80564 192.165273 
L 330.042012 186.380206 
L 365.599109 180.597846 
L 390.830296 174.819033 
L 407.348561 169.044871 
L 417.532866 163.276797 
L 423.505526 157.516686 
L 426.785539 151.766971 
L 428.348658 146.030801 
L 428.788983 140.312233 
L 428.430245 134.616446 
L 427.428445 128.950009 
L 425.834566 123.321143 
L 423.628695 117.739978 
L 420.746802 112.218725 
L 417.101526 106.771686 
L 412.602114 101.414948 
L 407.177724 96.165627 
L 400.805779 91.040516 
L 393.538244 86.054222 
L 385.516881 81.217141 
L 376.958847 76.534208 
L 368.097899 72.005683 
L 359.086102 67.630881 
L 349.893681 63.414249 
L 340.272586 59.371008 
L 329.831792 55.528765 
L 318.204069 51.923396 
L 305.21749 48.590927 
L 290.980234 45.559207 
L 275.849681 42.842506 
L 260.324036 40.440059 
L 244.919568 38.337837 
L 230.078374 36.512116 
L 216.122309 34.933507 
L 203.24607 33.570545 
L 191.53452 32.392393 
L 180.989872 31.370589 
L 171.55928 30.479967 
L 163.157921 29.698959 
L 155.686122 29.0095 
L 149.040941 28.396695 
L 143.123245 27.848402 
L 137.841645 27.354779 
L 133.114231 26.90787 
L 128.868868 26.501243 
L 125.042921 26.129672 
L 121.582328 25.788895 
L 118.440761 25.475399 
L 115.578511 25.186274 
L 112.961651 24.919073 
L 110.561148 24.671724 
L 108.352103 24.442454 
L 106.313134 24.229726 
L 104.425817 24.032201 
L 102.67424 23.848696 
L 101.044591 23.678162 
L 99.524838 23.519663 
L 98.104476 23.372354 
L 96.7743 23.235473 
L 95.526176 23.108328 
L 94.35294 22.990289 
L 93.248228 22.880779 
L 92.206376 22.779271 
L 91.222326 22.685278 
L 90.291545 22.598357 
L 89.409957 22.518094 
L 88.573889 22.444113 
L 87.780026 22.376061 
L 87.025358 22.313616 
L 86.307147 22.25648 
L 85.622905 22.204374 
L 84.970361 22.157043 
L 84.347432 22.114248 
L 83.752213 22.075772 
L 83.182951 22.04141 
L 82.638035 22.010973 
L 82.11598 21.984289 
L 81.615412 21.961195 
L 81.135062 21.941543 
L 80.673755 21.925196 
L 80.230394 21.912027 
L 79.803969 21.901921 
L 79.393533 21.894771 
L 78.998209 21.89048 
" clip-path="url(#pc64ed5497f)" style="fill: none; stroke: #ff7f0e; stroke-width: 1.5; stroke-linecap: square"/>
   </g>
   <g id="line2d_27">
    <path d="M 98.500431 219.99755 
L 118.88464 214.519912 
L 147.762327 209.043049 
L 185.245612 203.567189 
L 229.035379 198.092634 
L 273.921285 192.619767 
L 314.322861 187.149076 
L 346.730468 181.681197 
L 370.200977 176.216947 
L 386.070485 170.757377 
L 396.211808 165.303836 
L 402.359033 159.858047 
L 405.892196 154.422209 
L 407.715197 148.999103 
L 408.394378 143.592236 
L 408.271338 138.20598 
L 407.525536 132.845728 
L 406.240525 127.518027 
L 404.43508 122.230656 
L 402.093249 116.992592 
L 399.183133 111.813781 
L 395.678814 106.70461 
L 391.580526 101.674998 
L 386.935573 96.733111 
L 381.851875 91.883953 
L 376.491258 87.128465 
L 371.025673 82.464262 
L 365.547842 77.889144 
L 359.955489 73.40756 
L 353.872684 69.037876 
L 346.68961 64.816263 
L 337.752823 60.79357 
L 326.62653 57.02555 
L 313.279116 53.560768 
L 298.096143 50.431378 
L 281.741957 47.649339 
L 264.966322 45.207694 
L 248.44561 43.084897 
L 232.696113 41.250132 
L 218.052711 39.668216 
L 204.688842 38.3034 
L 192.654052 37.121943 
L 181.913477 36.093572 
L 172.381154 35.19212 
L 163.945293 34.395582 
L 156.485243 33.685835 
L 149.882274 33.04818 
L 144.02565 32.470822 
L 138.815565 31.94436 
L 134.164042 31.461323 
L 129.994737 31.015777 
L 126.242047 30.602993 
L 122.849965 30.219174 
L 119.770876 29.861253 
L 116.964375 29.526717 
L 114.396167 29.213488 
L 112.037137 28.919817 
L 109.862493 28.644222 
L 107.851122 28.385418 
L 105.984936 28.142282 
L 104.2484 27.913824 
L 102.628139 27.699155 
L 101.112555 27.497475 
L 99.691587 27.308056 
L 98.356447 27.130232 
L 97.099416 26.963392 
L 95.91371 26.806973 
L 94.793336 26.660451 
L 93.732958 26.523342 
L 92.727835 26.395198 
L 91.773715 26.2756 
L 90.866782 26.16416 
L 90.0036 26.060517 
L 89.181057 25.964335 
L 88.396334 25.875303 
L 87.646865 25.79313 
L 86.930311 25.71755 
L 86.244523 25.648314 
L 85.587538 25.585195 
L 84.957544 25.527984 
L 84.352874 25.476487 
L 83.77198 25.430533 
L 83.213436 25.389963 
L 82.675914 25.354637 
L 82.158176 25.324429 
L 81.659071 25.299231 
L 81.177513 25.278951 
L 80.712495 25.263511 
L 80.263065 25.252849 
L 79.828332 25.246922 
L 79.407449 25.245698 
" clip-path="url(#pc64ed5497f)" style="fill: none; stroke: #2ca02c; stroke-width: 1.5; stroke-linecap: square"/>
   </g>
   <g id="line2d_28">
    <path d="M 74.749574 232.314011 
L 83.962657 226.063804 
L 99.532958 219.814636 
L 124.540338 213.566865 
L 162.093649 207.320968 
L 212.148847 201.077585 
L 269.967825 194.837576 
L 326.543338 188.602087 
L 373.525215 182.372658 
L 407.355501 176.151337 
L 429.286504 169.940839 
L 442.30449 163.744766 
L 449.42273 157.567866 
L 452.785754 151.416355 
L 453.741051 145.298302 
L 453.033026 139.224049 
L 451.025775 133.206641 
L 447.845784 127.26216 
L 443.487044 121.409826 
L 437.878923 115.671639 
L 430.952597 110.07128 
L 422.697607 104.63204 
L 413.216927 99.373785 
L 402.757154 94.309556 
L 391.690232 89.443201 
L 380.425311 84.770005 
L 369.263571 80.281639 
L 358.257988 75.974395 
L 347.166572 71.8568 
L 335.549697 67.952061 
L 322.973331 64.293586 
L 309.208636 60.915964 
L 294.329613 57.845754 
L 278.680877 55.095494 
L 262.760335 52.662077 
L 247.085124 50.528728 
L 232.091463 48.669029 
L 218.086254 47.051393 
L 205.242511 45.64293 
L 193.620871 44.412214 
L 183.200765 43.330919 
L 173.910277 42.37454 
L 165.650257 41.522485 
L 158.311234 40.757794 
L 151.784272 40.066678 
L 145.967212 39.438012 
L 140.767613 38.862847 
L 136.103869 38.333983 
L 131.904995 37.845598 
L 128.109822 37.392964 
L 124.666026 36.972204 
L 121.528919 36.580111 
L 118.660406 36.214007 
L 116.028005 35.871628 
L 113.603953 35.551044 
L 111.364497 35.25059 
L 109.289224 34.968816 
L 107.36056 34.704454 
L 105.563293 34.456379 
L 103.884218 34.223591 
L 102.311835 34.005197 
L 100.83607 33.800389 
L 99.448083 33.608445 
L 98.140058 33.428705 
L 96.905095 33.260575 
L 95.737043 33.103514 
L 94.630435 32.957028 
L 93.580349 32.820674 
L 92.582378 32.694047 
L 91.632551 32.57678 
L 90.727261 32.468548 
L 89.863247 32.369051 
L 89.037528 32.278032 
L 88.247387 32.19526 
L 87.490334 32.120533 
L 86.764072 32.053685 
L 86.066485 31.994576 
L 85.395616 31.943096 
L 84.749651 31.899163 
L 84.126899 31.862727 
L 83.525775 31.833768 
L 82.944808 31.812293 
L 82.382608 31.798343 
L 81.83787 31.791986 
L 81.309379 31.793319 
L 80.795973 31.802473 
L 80.296575 31.819604 
L 79.81017 31.844894 
L 79.335814 31.878546 
L 78.872632 31.920785 
L 78.41982 31.971847 
" clip-path="url(#pc64ed5497f)" style="fill: none; stroke: #d62728; stroke-width: 1.5; stroke-linecap: square"/>
   </g>
   <g id="patch_3">
    <path d="M 55.8 243.018652 
L 55.8 7.516542 
" style="fill: none; stroke: #000000; stroke-width: 0.8; stroke-linejoin: miter; stroke-linecap: square"/>
   </g>
   <g id="patch_4">
    <path d="M 472.690625 243.018652 
L 472.690625 7.516542 
" style="fill: none; stroke: #000000; stroke-width: 0.8; stroke-linejoin: miter; stroke-linecap: square"/>
   </g>
   <g id="patch_5">
    <path d="M 55.8 243.018652 
L 472.690625 243.018652 
" style="fill: none; stroke: #000000; stroke-width: 0.8; stroke-linejoin: miter; stroke-linecap: square"/>
   </g>
   <g id="patch_6">
    <path d="M 55.8 7.516542 
L 472.690625 7.516542 
" style="fill: none; stroke: #000000; stroke-width: 0.8; stroke-linejoin: miter; stroke-linecap: square"/>
   </g>
   <g id="legend_1">
    <g id="patch_7">
     <path d="M 479.690625 164.430722 
L 559.6 164.430722 
Q 561.6 164.430722 561.6 162.430722 
L 561.6 88.104472 
Q 561.6 86.104472 559.6 86.104472 
L 479.690625 86.104472 
Q 477.690625 86.104472 477.690625 88.104472 
L 477.690625 162.430722 
Q 477.690625 164.430722 479.690625 164.430722 
z
" style="fill: #ffffff; opacity: 0.8; stroke: #cccccc; stroke-linejoin: miter"/>
    </g>
    <g id="text_15">
     <!-- Length -->
     <g transform="translate(498.949063 99.222597) scale(0.12 -0.12)">
      <defs>
       <path id="DejaVuSans-4c" d="M 628 4666 
L 1259 4666 
L 1259 531 
L 3531 531 
L 3531 0 
L 628 0 
L 628 4666 
z
" transform="scale(0.015625)"/>
       <path id="DejaVuSans-65" d="M 3597 1894 
L 3597 1613 
L 953 1613 
Q 991 1019 1311 708 
Q 1631 397 2203 397 
Q 2534 397 2845 478 
Q 3156 559 3463 722 
L 3463 178 
Q 3153 47 2828 -22 
Q 2503 -91 2169 -91 
Q 1331 -91 842 396 
Q 353 884 353 1716 
Q 353 2575 817 3079 
Q 1281 3584 2069 3584 
Q 2775 3584 3186 3129 
Q 3597 2675 3597 1894 
z
M 3022 2063 
Q 3016 2534 2758 2815 
Q 2500 3097 2075 3097 
Q 1594 3097 1305 2825 
Q 1016 2553 972 2059 
L 3022 2063 
z
" transform="scale(0.015625)"/>
       <path id="DejaVuSans-6e" d="M 3513 2113 
L 3513 0 
L 2938 0 
L 2938 2094 
Q 2938 2591 2744 2837 
Q 2550 3084 2163 3084 
Q 1697 3084 1428 2787 
Q 1159 2491 1159 1978 
L 1159 0 
L 581 0 
L 581 3500 
L 1159 3500 
L 1159 2956 
Q 1366 3272 1645 3428 
Q 1925 3584 2291 3584 
Q 2894 3584 3203 3211 
Q 3513 2838 3513 2113 
z
" transform="scale(0.015625)"/>
       <path id="DejaVuSans-67" d="M 2906 1791 
Q 2906 2416 2648 2759 
Q 2391 3103 1925 3103 
Q 1463 3103 1205 2759 
Q 947 2416 947 1791 
Q 947 1169 1205 825 
Q 1463 481 1925 481 
Q 2391 481 2648 825 
Q 2906 1169 2906 1791 
z
M 3481 434 
Q 3481 -459 3084 -895 
Q 2688 -1331 1869 -1331 
Q 1566 -1331 1297 -1286 
Q 1028 -1241 775 -1147 
L 775 -588 
Q 1028 -725 1275 -790 
Q 1522 -856 1778 -856 
Q 2344 -856 2625 -561 
Q 2906 -266 2906 331 
L 2906 616 
Q 2728 306 2450 153 
Q 2172 0 1784 0 
Q 1141 0 747 490 
Q 353 981 353 1791 
Q 353 2603 747 3093 
Q 1141 3584 1784 3584 
Q 2172 3584 2450 3431 
Q 2728 3278 2906 2969 
L 2906 3500 
L 3481 3500 
L 3481 434 
z
" transform="scale(0.015625)"/>
       <path id="DejaVuSans-74" d="M 1172 4494 
L 1172 3500 
L 2356 3500 
L 2356 3053 
L 1172 3053 
L 1172 1153 
Q 1172 725 1289 603 
Q 1406 481 1766 481 
L 2356 481 
L 2356 0 
L 1766 0 
Q 1100 0 847 248 
Q 594 497 594 1153 
L 594 3053 
L 172 3053 
L 172 3500 
L 594 3500 
L 594 4494 
L 1172 4494 
z
" transform="scale(0.015625)"/>
       <path id="DejaVuSans-68" d="M 3513 2113 
L 3513 0 
L 2938 0 
L 2938 2094 
Q 2938 2591 2744 2837 
Q 2550 3084 2163 3084 
Q 1697 3084 1428 2787 
Q 1159 2491 1159 1978 
L 1159 0 
L 581 0 
L 581 4863 
L 1159 4863 
L 1159 2956 
Q 1366 3272 1645 3428 
Q 1925 3584 2291 3584 
Q 2894 3584 3203 3211 
Q 3513 2838 3513 2113 
z
" transform="scale(0.015625)"/>
      </defs>
      <use xlink:href="#DejaVuSans-4c"/>
      <use xlink:href="#DejaVuSans-65" transform="translate(53.962891 0)"/>
      <use xlink:href="#DejaVuSans-6e" transform="translate(115.486328 0)"/>
      <use xlink:href="#DejaVuSans-67" transform="translate(178.865234 0)"/>
      <use xlink:href="#DejaVuSans-74" transform="translate(242.341797 0)"/>
      <use xlink:href="#DejaVuSans-68" transform="translate(281.550781 0)"/>
     </g>
    </g>
    <g id="line2d_29">
     <path d="M 481.690625 110.81666 
L 491.690625 110.81666 
L 501.690625 110.81666 
" style="fill: none; stroke: #1f77b4; stroke-width: 1.5; stroke-linecap: square"/>
    </g>
    <g id="text_16">
     <!-- 0.150 μm -->
     <g transform="translate(509.690625 114.31666) scale(0.1 -0.1)">
      <defs>
       <path id="DejaVuSans-2e" d="M 684 794 
L 1344 794 
L 1344 0 
L 684 0 
L 684 794 
z
" transform="scale(0.015625)"/>
       <path id="DejaVuSans-3bc" d="M 544 -1331 
L 544 3500 
L 1119 3500 
L 1119 1325 
Q 1119 872 1334 640 
Q 1550 409 1972 409 
Q 2434 409 2667 671 
Q 2900 934 2900 1459 
L 2900 3500 
L 3475 3500 
L 3475 806 
Q 3475 619 3529 530 
Q 3584 441 3700 441 
Q 3728 441 3778 458 
Q 3828 475 3916 513 
L 3916 50 
Q 3788 -22 3673 -56 
Q 3559 -91 3450 -91 
Q 3234 -91 3106 31 
Q 2978 153 2931 403 
Q 2775 156 2548 32 
Q 2322 -91 2016 -91 
Q 1697 -91 1473 31 
Q 1250 153 1119 397 
L 1119 -1331 
L 544 -1331 
z
" transform="scale(0.015625)"/>
       <path id="DejaVuSans-6d" d="M 3328 2828 
Q 3544 3216 3844 3400 
Q 4144 3584 4550 3584 
Q 5097 3584 5394 3201 
Q 5691 2819 5691 2113 
L 5691 0 
L 5113 0 
L 5113 2094 
Q 5113 2597 4934 2840 
Q 4756 3084 4391 3084 
Q 3944 3084 3684 2787 
Q 3425 2491 3425 1978 
L 3425 0 
L 2847 0 
L 2847 2094 
Q 2847 2600 2669 2842 
Q 2491 3084 2119 3084 
Q 1678 3084 1418 2786 
Q 1159 2488 1159 1978 
L 1159 0 
L 581 0 
L 581 3500 
L 1159 3500 
L 1159 2956 
Q 1356 3278 1631 3431 
Q 1906 3584 2284 3584 
Q 2666 3584 2933 3390 
Q 3200 3197 3328 2828 
z
" transform="scale(0.015625)"/>
      </defs>
      <use xlink:href="#DejaVuSans-30"/>
      <use xlink:href="#DejaVuSans-2e" transform="translate(63.623047 0)"/>
      <use xlink:href="#DejaVuSans-31" transform="translate(95.410156 0)"/>
      <use xlink:href="#DejaVuSans-35" transform="translate(159.033203 0)"/>
      <use xlink:href="#DejaVuSans-30" transform="translate(222.65625 0)"/>
      <use xlink:href="#DejaVuSans-20" transform="translate(286.279297 0)"/>
      <use xlink:href="#DejaVuSans-3bc" transform="translate(318.066406 0)"/>
      <use xlink:href="#DejaVuSans-6d" transform="translate(381.689453 0)"/>
     </g>
    </g>
    <g id="line2d_30">
     <path d="M 481.690625 125.494785 
L 491.690625 125.494785 
L 501.690625 125.494785 
" style="fill: none; stroke: #ff7f0e; stroke-width: 1.5; stroke-linecap: square"/>
    </g>
    <g id="text_17">
     <!-- 0.300 μm -->
     <g transform="translate(509.690625 128.994785) scale(0.1 -0.1)">
      <use xlink:href="#DejaVuSans-30"/>
      <use xlink:href="#DejaVuSans-2e" transform="translate(63.623047 0)"/>
      <use xlink:href="#DejaVuSans-33" transform="translate(95.410156 0)"/>
      <use xlink:href="#DejaVuSans-30" transform="translate(159.033203 0)"/>
      <use xlink:href="#DejaVuSans-30" transform="translate(222.65625 0)"/>
      <use xlink:href="#DejaVuSans-20" transform="translate(286.279297 0)"/>
      <use xlink:href="#DejaVuSans-3bc" transform="translate(318.066406 0)"/>
      <use xlink:href="#DejaVuSans-6d" transform="translate(381.689453 0)"/>
     </g>
    </g>
    <g id="line2d_31">
     <path d="M 481.690625 140.17291 
L 491.690625 140.17291 
L 501.690625 140.17291 
" style="fill: none; stroke: #2ca02c; stroke-width: 1.5; stroke-linecap: square"/>
    </g>
    <g id="text_18">
     <!-- 0.500 μm -->
     <g transform="translate(509.690625 143.67291) scale(0.1 -0.1)">
      <use xlink:href="#DejaVuSans-30"/>
      <use xlink:href="#DejaVuSans-2e" transform="translate(63.623047 0)"/>
      <use xlink:href="#DejaVuSans-35" transform="translate(95.410156 0)"/>
      <use xlink:href="#DejaVuSans-30" transform="translate(159.033203 0)"/>
      <use xlink:href="#DejaVuSans-30" transform="translate(222.65625 0)"/>
      <use xlink:href="#DejaVuSans-20" transform="translate(286.279297 0)"/>
      <use xlink:href="#DejaVuSans-3bc" transform="translate(318.066406 0)"/>
      <use xlink:href="#DejaVuSans-6d" transform="translate(381.689453 0)"/>
     </g>
    </g>
    <g id="line2d_32">
     <path d="M 481.690625 154.851035 
L 491.690625 154.851035 
L 501.690625 154.851035 
" style="fill: none; stroke: #d62728; stroke-width: 1.5; stroke-linecap: square"/>
    </g>
    <g id="text_19">
     <!-- 1.000 μm -->
     <g transform="translate(509.690625 158.351035) scale(0.1 -0.1)">
      <use xlink:href="#DejaVuSans-31"/>
      <use xlink:href="#DejaVuSans-2e" transform="translate(63.623047 0)"/>
      <use xlink:href="#DejaVuSans-30" transform="translate(95.410156 0)"/>
      <use xlink:href="#DejaVuSans-30" transform="translate(159.033203 0)"/>
      <use xlink:href="#DejaVuSans-30" transform="translate(222.65625 0)"/>
      <use xlink:href="#DejaVuSans-20" transform="translate(286.279297 0)"/>
      <use xlink:href="#DejaVuSans-3bc" transform="translate(318.066406 0)"/>
      <use xlink:href="#DejaVuSans-6d" transform="translate(381.689453 0)"/>
     </g>
    </g>
   </g>
  </g>
 </g>
 <defs>
  <clipPath id="pc64ed5497f">
   <rect x="55.8" y="7.516542" width="416.890625" height="235.502111"/>
  </clipPath>
 </defs>
</svg>
